<mxfile host="app.diagrams.net" modified="2023-04-21T07:18:17.117Z" agent="Mozilla/5.0 (Macintosh; Intel Mac OS X 10_15_7) AppleWebKit/537.36 (KHTML, like Gecko) Chrome/111.0.0.0 Safari/537.36" etag="AuyWI0ZqmS8M-KEtkkc5" version="21.2.1" type="github">
  <diagram id="m2yf274t8tq8ouvesx9-" name="Page-1">
    <mxGraphModel dx="607" dy="796" grid="1" gridSize="10" guides="1" tooltips="1" connect="1" arrows="1" fold="1" page="1" pageScale="1" pageWidth="827" pageHeight="1169" math="0" shadow="0">
      <root>
        <mxCell id="0" />
        <mxCell id="1" parent="0" />
        <mxCell id="9VEnPuVJjKM_ZVN6CkUY-1" value="" style="rounded=0;whiteSpace=wrap;html=1;dashed=1;strokeColor=#000000;strokeWidth=2;fontFamily=Helvetica;fontSize=12;fontColor=#000000;fillColor=#E6E6E6;container=0;" parent="1" vertex="1">
          <mxGeometry x="1470" y="790" width="1180" height="780" as="geometry" />
        </mxCell>
        <mxCell id="fV8yQy2clXd-9ZjG-nMR-220" value="" style="group" parent="1" vertex="1" connectable="0">
          <mxGeometry x="1480" y="800" width="1163" height="760.1100000000001" as="geometry" />
        </mxCell>
        <mxCell id="9VEnPuVJjKM_ZVN6CkUY-14" value="" style="group" parent="fV8yQy2clXd-9ZjG-nMR-220" vertex="1" connectable="0">
          <mxGeometry x="903" width="260" height="760.11" as="geometry" />
        </mxCell>
        <mxCell id="zfzZaOAXR4KBhkY2sdG--72" value="" style="rounded=0;whiteSpace=wrap;html=1;dashed=1;labelBackgroundColor=#E6E6E6;strokeColor=#6666FF;strokeWidth=2;fillColor=#FFFFFF;gradientColor=none;align=center;container=0;" parent="9VEnPuVJjKM_ZVN6CkUY-14" vertex="1">
          <mxGeometry width="260" height="760.11" as="geometry" />
        </mxCell>
        <mxCell id="zfzZaOAXR4KBhkY2sdG--150" value="Terminate" style="strokeWidth=2;html=1;shape=mxgraph.flowchart.terminator;whiteSpace=wrap;rounded=1;dashed=1;labelBackgroundColor=#FFFFFF;strokeColor=#6666FF;fontFamily=Helvetica;fontSize=12;fontColor=#000000;fillColor=#FFFFFF;gradientColor=none;align=center;container=0;" parent="9VEnPuVJjKM_ZVN6CkUY-14" vertex="1">
          <mxGeometry x="70.20000000000002" y="688.8496875000001" width="119.60000000000001" height="59.38359375" as="geometry" />
        </mxCell>
        <mxCell id="WBYgSGgt15CVEmpAPgP6-46" style="edgeStyle=orthogonalEdgeStyle;rounded=0;orthogonalLoop=1;jettySize=auto;html=1;endArrow=none;endFill=0;" parent="9VEnPuVJjKM_ZVN6CkUY-14" source="WBYgSGgt15CVEmpAPgP6-31" edge="1">
          <mxGeometry relative="1" as="geometry">
            <mxPoint x="210.60000000000002" y="439.43859375000005" as="targetPoint" />
            <Array as="points">
              <mxPoint x="239.20000000000002" y="647.281171875" />
              <mxPoint x="239.20000000000002" y="439.43859375000005" />
            </Array>
          </mxGeometry>
        </mxCell>
        <mxCell id="WBYgSGgt15CVEmpAPgP6-31" value="Remove active sensorId" style="rounded=1;whiteSpace=wrap;html=1;absoluteArcSize=1;arcSize=14;strokeWidth=2;strokeColor=#6666FF;align=center;container=0;dashed=1;" parent="9VEnPuVJjKM_ZVN6CkUY-14" vertex="1">
          <mxGeometry x="62.400000000000006" y="629.46609375" width="124.80000000000001" height="35.63015625" as="geometry" />
        </mxCell>
        <mxCell id="WBYgSGgt15CVEmpAPgP6-43" style="edgeStyle=orthogonalEdgeStyle;rounded=0;orthogonalLoop=1;jettySize=auto;html=1;entryX=0.5;entryY=0;entryDx=0;entryDy=0;" parent="9VEnPuVJjKM_ZVN6CkUY-14" source="WBYgSGgt15CVEmpAPgP6-30" target="WBYgSGgt15CVEmpAPgP6-31" edge="1">
          <mxGeometry relative="1" as="geometry" />
        </mxCell>
        <mxCell id="WBYgSGgt15CVEmpAPgP6-44" value="YES" style="edgeLabel;html=1;align=center;verticalAlign=middle;resizable=0;points=[];container=0;" parent="WBYgSGgt15CVEmpAPgP6-43" vertex="1" connectable="0">
          <mxGeometry x="0.05" y="3" relative="1" as="geometry">
            <mxPoint x="-2" y="-2" as="offset" />
          </mxGeometry>
        </mxCell>
        <mxCell id="WBYgSGgt15CVEmpAPgP6-54" style="edgeStyle=orthogonalEdgeStyle;rounded=0;orthogonalLoop=1;jettySize=auto;html=1;entryX=0;entryY=0.5;entryDx=0;entryDy=0;entryPerimeter=0;" parent="9VEnPuVJjKM_ZVN6CkUY-14" source="WBYgSGgt15CVEmpAPgP6-49" target="zfzZaOAXR4KBhkY2sdG--150" edge="1">
          <mxGeometry relative="1" as="geometry">
            <Array as="points">
              <mxPoint x="23.400000000000002" y="142.520625" />
              <mxPoint x="23.400000000000002" y="718.541484375" />
            </Array>
          </mxGeometry>
        </mxCell>
        <mxCell id="WBYgSGgt15CVEmpAPgP6-55" value="NO" style="edgeLabel;html=1;align=center;verticalAlign=middle;resizable=0;points=[];container=0;" parent="WBYgSGgt15CVEmpAPgP6-54" vertex="1" connectable="0">
          <mxGeometry x="0.1339" y="1" relative="1" as="geometry">
            <mxPoint as="offset" />
          </mxGeometry>
        </mxCell>
        <mxCell id="zfzZaOAXR4KBhkY2sdG--189" value="&lt;font color=&quot;#6666ff&quot; style=&quot;font-size: 14px;&quot; face=&quot;Comic Sans MS&quot;&gt;Save &amp;amp; Clean up&lt;/font&gt;" style="text;html=1;strokeColor=none;fillColor=none;align=center;verticalAlign=middle;whiteSpace=wrap;rounded=0;dashed=1;labelBackgroundColor=#FFFFFF;strokeWidth=2;container=0;" parent="9VEnPuVJjKM_ZVN6CkUY-14" vertex="1">
          <mxGeometry x="39.00000000000001" y="23.7534375" width="182.00000000000003" as="geometry" />
        </mxCell>
        <mxCell id="WBYgSGgt15CVEmpAPgP6-29" value="Acquired?" style="strokeWidth=2;html=1;shape=mxgraph.flowchart.decision;whiteSpace=wrap;rounded=1;dashed=1;strokeColor=#6666FF;container=0;" parent="9VEnPuVJjKM_ZVN6CkUY-14" vertex="1">
          <mxGeometry x="71.24000000000001" y="403.8084375000001" width="104.00000000000001" height="71.2603125" as="geometry" />
        </mxCell>
        <mxCell id="WBYgSGgt15CVEmpAPgP6-30" value="Empty Data Buffer&lt;br&gt;?" style="strokeWidth=2;html=1;shape=mxgraph.flowchart.decision;whiteSpace=wrap;rounded=1;dashed=1;strokeColor=#6666FF;container=0;" parent="9VEnPuVJjKM_ZVN6CkUY-14" vertex="1">
          <mxGeometry x="72.80000000000001" y="510.69890625" width="104.00000000000001" height="71.2603125" as="geometry" />
        </mxCell>
        <mxCell id="WBYgSGgt15CVEmpAPgP6-40" style="edgeStyle=orthogonalEdgeStyle;rounded=0;orthogonalLoop=1;jettySize=auto;html=1;entryX=0.5;entryY=0;entryDx=0;entryDy=0;entryPerimeter=0;" parent="9VEnPuVJjKM_ZVN6CkUY-14" source="WBYgSGgt15CVEmpAPgP6-29" target="WBYgSGgt15CVEmpAPgP6-30" edge="1">
          <mxGeometry relative="1" as="geometry" />
        </mxCell>
        <mxCell id="WBYgSGgt15CVEmpAPgP6-41" value="YES" style="edgeLabel;html=1;align=center;verticalAlign=middle;resizable=0;points=[];container=0;" parent="WBYgSGgt15CVEmpAPgP6-40" vertex="1" connectable="0">
          <mxGeometry x="-0.28" relative="1" as="geometry">
            <mxPoint as="offset" />
          </mxGeometry>
        </mxCell>
        <mxCell id="WBYgSGgt15CVEmpAPgP6-33" style="edgeStyle=orthogonalEdgeStyle;rounded=0;orthogonalLoop=1;jettySize=auto;html=1;exitX=1;exitY=0.5;exitDx=0;exitDy=0;exitPerimeter=0;" parent="9VEnPuVJjKM_ZVN6CkUY-14" source="WBYgSGgt15CVEmpAPgP6-29" edge="1">
          <mxGeometry relative="1" as="geometry">
            <mxPoint x="175.76000000000002" y="142.520625" as="targetPoint" />
            <Array as="points">
              <mxPoint x="239.20000000000002" y="439.43859375000005" />
              <mxPoint x="239.20000000000002" y="142.520625" />
            </Array>
          </mxGeometry>
        </mxCell>
        <mxCell id="WBYgSGgt15CVEmpAPgP6-57" value="NO" style="edgeLabel;html=1;align=center;verticalAlign=middle;resizable=0;points=[];container=0;" parent="WBYgSGgt15CVEmpAPgP6-33" vertex="1" connectable="0">
          <mxGeometry x="-0.9373" y="2" relative="1" as="geometry">
            <mxPoint x="15" y="2" as="offset" />
          </mxGeometry>
        </mxCell>
        <mxCell id="WBYgSGgt15CVEmpAPgP6-36" style="edgeStyle=orthogonalEdgeStyle;rounded=0;orthogonalLoop=1;jettySize=auto;html=1;entryX=0.5;entryY=0;entryDx=0;entryDy=0;entryPerimeter=0;" parent="9VEnPuVJjKM_ZVN6CkUY-14" source="zfzZaOAXR4KBhkY2sdG--116" target="WBYgSGgt15CVEmpAPgP6-29" edge="1">
          <mxGeometry relative="1" as="geometry" />
        </mxCell>
        <mxCell id="WBYgSGgt15CVEmpAPgP6-4" value="Batch save to EventHub" style="rounded=1;whiteSpace=wrap;html=1;absoluteArcSize=1;arcSize=14;strokeWidth=2;align=center;container=0;strokeColor=#6666FF;dashed=1;" parent="9VEnPuVJjKM_ZVN6CkUY-14" vertex="1">
          <mxGeometry x="62.400000000000006" y="47.502073773271356" width="124.80000000000001" height="41.69486369680851" as="geometry" />
        </mxCell>
        <mxCell id="zfzZaOAXR4KBhkY2sdG--116" value="Acquire Delete Lock" style="rounded=1;whiteSpace=wrap;html=1;absoluteArcSize=1;arcSize=22;strokeWidth=2;strokeColor=#6666FF;align=center;container=0;dashed=1;" parent="9VEnPuVJjKM_ZVN6CkUY-14" vertex="1">
          <mxGeometry x="60.84000000000001" y="336.111140625" width="124.80000000000001" height="35.63015625" as="geometry" />
        </mxCell>
        <mxCell id="WBYgSGgt15CVEmpAPgP6-39" style="edgeStyle=orthogonalEdgeStyle;rounded=0;orthogonalLoop=1;jettySize=auto;html=1;entryX=0.5;entryY=0;entryDx=0;entryDy=0;" parent="9VEnPuVJjKM_ZVN6CkUY-14" source="WBYgSGgt15CVEmpAPgP6-28" target="zfzZaOAXR4KBhkY2sdG--116" edge="1">
          <mxGeometry relative="1" as="geometry" />
        </mxCell>
        <mxCell id="WBYgSGgt15CVEmpAPgP6-28" value="Remove worthless data buffer" style="rounded=1;whiteSpace=wrap;html=1;absoluteArcSize=1;arcSize=14;strokeWidth=2;strokeColor=#6666FF;align=center;container=0;dashed=1;" parent="9VEnPuVJjKM_ZVN6CkUY-14" vertex="1">
          <mxGeometry x="60.84000000000001" y="276.72754687500003" width="124.80000000000001" height="35.63015625" as="geometry" />
        </mxCell>
        <mxCell id="WBYgSGgt15CVEmpAPgP6-48" style="edgeStyle=orthogonalEdgeStyle;rounded=0;orthogonalLoop=1;jettySize=auto;html=1;entryX=0.5;entryY=0;entryDx=0;entryDy=0;entryPerimeter=0;exitX=0.5;exitY=1;exitDx=0;exitDy=0;" parent="9VEnPuVJjKM_ZVN6CkUY-14" source="WBYgSGgt15CVEmpAPgP6-4" target="WBYgSGgt15CVEmpAPgP6-49" edge="1">
          <mxGeometry relative="1" as="geometry">
            <mxPoint x="124.80000000000001" y="178.15078125" as="targetPoint" />
          </mxGeometry>
        </mxCell>
        <mxCell id="WBYgSGgt15CVEmpAPgP6-56" style="edgeStyle=orthogonalEdgeStyle;rounded=0;orthogonalLoop=1;jettySize=auto;html=1;" parent="9VEnPuVJjKM_ZVN6CkUY-14" source="WBYgSGgt15CVEmpAPgP6-47" target="WBYgSGgt15CVEmpAPgP6-28" edge="1">
          <mxGeometry relative="1" as="geometry" />
        </mxCell>
        <mxCell id="WBYgSGgt15CVEmpAPgP6-47" value="Get next sensorId" style="rounded=1;whiteSpace=wrap;html=1;absoluteArcSize=1;arcSize=14;strokeWidth=2;strokeColor=#6666FF;align=center;container=0;dashed=1;" parent="9VEnPuVJjKM_ZVN6CkUY-14" vertex="1">
          <mxGeometry x="60.84000000000001" y="216.15628125000003" width="124.80000000000001" height="35.63015625" as="geometry" />
        </mxCell>
        <mxCell id="WBYgSGgt15CVEmpAPgP6-52" style="edgeStyle=orthogonalEdgeStyle;rounded=0;orthogonalLoop=1;jettySize=auto;html=1;entryX=0.5;entryY=0;entryDx=0;entryDy=0;" parent="9VEnPuVJjKM_ZVN6CkUY-14" source="WBYgSGgt15CVEmpAPgP6-49" target="WBYgSGgt15CVEmpAPgP6-47" edge="1">
          <mxGeometry relative="1" as="geometry" />
        </mxCell>
        <mxCell id="WBYgSGgt15CVEmpAPgP6-53" value="YES" style="edgeLabel;html=1;align=center;verticalAlign=middle;resizable=0;points=[];container=0;" parent="WBYgSGgt15CVEmpAPgP6-52" vertex="1" connectable="0">
          <mxGeometry x="-0.4" y="1" relative="1" as="geometry">
            <mxPoint as="offset" />
          </mxGeometry>
        </mxCell>
        <mxCell id="WBYgSGgt15CVEmpAPgP6-49" value="Has next sensorId&lt;br&gt;?" style="strokeWidth=2;html=1;shape=mxgraph.flowchart.decision;whiteSpace=wrap;rounded=1;dashed=1;strokeColor=#6666FF;container=0;" parent="9VEnPuVJjKM_ZVN6CkUY-14" vertex="1">
          <mxGeometry x="71.24000000000001" y="106.89046875000003" width="104.00000000000001" height="71.2603125" as="geometry" />
        </mxCell>
        <mxCell id="fV8yQy2clXd-9ZjG-nMR-213" value="" style="group" parent="fV8yQy2clXd-9ZjG-nMR-220" vertex="1" connectable="0">
          <mxGeometry x="226" width="670" height="760.11" as="geometry" />
        </mxCell>
        <mxCell id="zfzZaOAXR4KBhkY2sdG--48" value="" style="rounded=0;whiteSpace=wrap;html=1;dashed=1;labelBackgroundColor=#E6E6E6;strokeColor=#FFB366;strokeWidth=2;fillColor=#FFFFFF;gradientColor=none;align=center;container=0;" parent="fV8yQy2clXd-9ZjG-nMR-213" vertex="1">
          <mxGeometry width="670" height="760.11" as="geometry" />
        </mxCell>
        <mxCell id="zfzZaOAXR4KBhkY2sdG--136" value="&lt;font color=&quot;#ffb366&quot;&gt;&lt;font style=&quot;font-size: 14px;&quot; face=&quot;Comic Sans MS&quot;&gt;Find Session Event&lt;/font&gt;&lt;/font&gt;" style="text;html=1;strokeColor=none;fillColor=none;align=center;verticalAlign=middle;whiteSpace=wrap;rounded=0;dashed=1;labelBackgroundColor=#FFFFFF;strokeWidth=2;container=0;" parent="fV8yQy2clXd-9ZjG-nMR-213" vertex="1">
          <mxGeometry x="248.19692307692299" y="10.109218749999968" width="154.61538461538458" height="36.49999999999999" as="geometry" />
        </mxCell>
        <mxCell id="fV8yQy2clXd-9ZjG-nMR-208" style="edgeStyle=orthogonalEdgeStyle;rounded=0;orthogonalLoop=1;jettySize=auto;html=1;endArrow=none;endFill=0;" parent="fV8yQy2clXd-9ZjG-nMR-213" edge="1">
          <mxGeometry relative="1" as="geometry">
            <mxPoint x="321" y="194.11" as="targetPoint" />
            <mxPoint x="130" y="110.11000000000001" as="sourcePoint" />
            <Array as="points">
              <mxPoint x="181" y="114.11000000000001" />
              <mxPoint x="181" y="194.11" />
            </Array>
          </mxGeometry>
        </mxCell>
        <mxCell id="WBYgSGgt15CVEmpAPgP6-104" value="&lt;span style=&quot;color: rgb(0, 0, 0); font-family: Helvetica; font-size: 12px;&quot;&gt;Query DataBuffer&lt;/span&gt;&lt;br style=&quot;color: rgb(0, 0, 0); font-family: Helvetica; font-size: 12px;&quot;&gt;&lt;span style=&quot;color: rgb(0, 0, 0); font-family: Helvetica; font-size: 12px;&quot;&gt;sort by receiveTime asc&lt;/span&gt;" style="rounded=1;whiteSpace=wrap;html=1;absoluteArcSize=1;arcSize=14;strokeWidth=2;dashed=1;strokeColor=#FFB366;fontFamily=Comic Sans MS;fontSize=14;fontColor=#FFB366;container=0;" parent="fV8yQy2clXd-9ZjG-nMR-213" vertex="1">
          <mxGeometry x="19.997692307692205" y="80.10921874999997" width="112.35384615384615" height="60.83333333333333" as="geometry" />
        </mxCell>
        <mxCell id="fV8yQy2clXd-9ZjG-nMR-94" value="Terminate" style="strokeWidth=2;html=1;shape=mxgraph.flowchart.terminator;whiteSpace=wrap;rounded=1;dashed=1;labelBackgroundColor=#FFFFFF;strokeColor=#FFB366;fontFamily=Helvetica;fontSize=12;fontColor=#000000;fillColor=#FFFFFF;gradientColor=none;align=center;container=0;" parent="fV8yQy2clXd-9ZjG-nMR-213" vertex="1">
          <mxGeometry x="261" y="690.11" width="129" height="57.03" as="geometry" />
        </mxCell>
        <mxCell id="fV8yQy2clXd-9ZjG-nMR-188" value="NO" style="edgeStyle=orthogonalEdgeStyle;rounded=0;orthogonalLoop=1;jettySize=auto;html=1;" parent="fV8yQy2clXd-9ZjG-nMR-213" source="fV8yQy2clXd-9ZjG-nMR-183" target="WBYgSGgt15CVEmpAPgP6-104" edge="1">
          <mxGeometry relative="1" as="geometry">
            <mxPoint x="344" y="180.11" as="targetPoint" />
          </mxGeometry>
        </mxCell>
        <mxCell id="fV8yQy2clXd-9ZjG-nMR-198" style="edgeStyle=orthogonalEdgeStyle;rounded=0;orthogonalLoop=1;jettySize=auto;html=1;entryX=0;entryY=0.5;entryDx=0;entryDy=0;entryPerimeter=0;exitX=0.5;exitY=1;exitDx=0;exitDy=0;exitPerimeter=0;" parent="fV8yQy2clXd-9ZjG-nMR-213" source="fV8yQy2clXd-9ZjG-nMR-183" target="fV8yQy2clXd-9ZjG-nMR-94" edge="1">
          <mxGeometry relative="1" as="geometry">
            <Array as="points">
              <mxPoint x="76" y="719.11" />
            </Array>
          </mxGeometry>
        </mxCell>
        <mxCell id="fV8yQy2clXd-9ZjG-nMR-203" value="YES" style="edgeLabel;html=1;align=center;verticalAlign=middle;resizable=0;points=[];" parent="fV8yQy2clXd-9ZjG-nMR-198" vertex="1" connectable="0">
          <mxGeometry x="-0.8249" y="1" relative="1" as="geometry">
            <mxPoint as="offset" />
          </mxGeometry>
        </mxCell>
        <mxCell id="fV8yQy2clXd-9ZjG-nMR-183" value="Has checked event by&amp;nbsp; receiveTime?" style="strokeWidth=2;html=1;shape=mxgraph.flowchart.decision;whiteSpace=wrap;rounded=1;dashed=1;strokeColor=#FFB366;fontFamily=Helvetica;fontSize=12;fontColor=#000000;container=0;" parent="fV8yQy2clXd-9ZjG-nMR-213" vertex="1">
          <mxGeometry x="18.970769230769292" y="204.8958854166666" width="113.38461538461537" height="85.16666666666666" as="geometry" />
        </mxCell>
        <mxCell id="fV8yQy2clXd-9ZjG-nMR-191" value="" style="group" parent="fV8yQy2clXd-9ZjG-nMR-213" vertex="1" connectable="0">
          <mxGeometry x="89.99769230769243" y="50.1125520833333" width="546.31" height="657.0000000000001" as="geometry" />
        </mxCell>
        <mxCell id="WBYgSGgt15CVEmpAPgP6-60" value="&lt;font style=&quot;font-size: 12px;&quot; face=&quot;Helvetica&quot; color=&quot;#000000&quot;&gt;Query DataBuffer &lt;br&gt;sort by recordTime asc&lt;br&gt;&lt;/font&gt;" style="rounded=1;whiteSpace=wrap;html=1;absoluteArcSize=1;arcSize=14;strokeWidth=2;dashed=1;strokeColor=#FFB366;fontFamily=Comic Sans MS;fontSize=14;fontColor=#FFB366;container=0;" parent="fV8yQy2clXd-9ZjG-nMR-191" vertex="1">
          <mxGeometry x="170.07692307692304" y="73" width="123.69230769230768" height="60.83333333333333" as="geometry" />
        </mxCell>
        <mxCell id="WBYgSGgt15CVEmpAPgP6-64" style="edgeStyle=orthogonalEdgeStyle;rounded=0;orthogonalLoop=1;jettySize=auto;html=1;entryX=0.5;entryY=0;entryDx=0;entryDy=0;fontFamily=Helvetica;fontSize=12;fontColor=#000000;endArrow=classic;endFill=1;" parent="fV8yQy2clXd-9ZjG-nMR-191" source="WBYgSGgt15CVEmpAPgP6-62" target="WBYgSGgt15CVEmpAPgP6-60" edge="1">
          <mxGeometry relative="1" as="geometry" />
        </mxCell>
        <mxCell id="WBYgSGgt15CVEmpAPgP6-62" value="&lt;span style=&quot;color: rgb(0, 0, 0); font-family: Helvetica; font-size: 12px; background-color: rgb(255, 255, 255);&quot;&gt;For each sensorId&lt;/span&gt;" style="rounded=1;whiteSpace=wrap;html=1;absoluteArcSize=1;arcSize=14;strokeWidth=2;dashed=1;strokeColor=#FFB366;fontFamily=Comic Sans MS;fontSize=14;fontColor=#FFB366;container=0;" parent="fV8yQy2clXd-9ZjG-nMR-191" vertex="1">
          <mxGeometry x="170.07692307692304" width="123.69230769230768" height="40.15" as="geometry" />
        </mxCell>
        <mxCell id="WBYgSGgt15CVEmpAPgP6-71" value="&lt;font color=&quot;#000000&quot; style=&quot;font-size: 12px;&quot; face=&quot;Helvetica&quot;&gt;Mark as a SessionStart event&lt;/font&gt;" style="rounded=1;whiteSpace=wrap;html=1;absoluteArcSize=1;arcSize=14;strokeWidth=2;dashed=1;strokeColor=#FFB366;fontFamily=Comic Sans MS;fontSize=14;fontColor=#FFB366;container=0;" parent="fV8yQy2clXd-9ZjG-nMR-191" vertex="1">
          <mxGeometry x="176.26153846153846" y="554.3033333333333" width="112.35384615384615" height="48.666666666666664" as="geometry" />
        </mxCell>
        <mxCell id="fV8yQy2clXd-9ZjG-nMR-93" value="NO" style="edgeStyle=orthogonalEdgeStyle;rounded=0;orthogonalLoop=1;jettySize=auto;html=1;exitX=0.5;exitY=0;exitDx=0;exitDy=0;exitPerimeter=0;endArrow=none;endFill=0;" parent="fV8yQy2clXd-9ZjG-nMR-191" source="WBYgSGgt15CVEmpAPgP6-79" edge="1">
          <mxGeometry x="-0.0316" relative="1" as="geometry">
            <mxPoint x="309.00230769230757" y="289.9974479166667" as="targetPoint" />
            <Array as="points">
              <mxPoint x="474" y="300" />
              <mxPoint x="309" y="300" />
            </Array>
            <mxPoint as="offset" />
          </mxGeometry>
        </mxCell>
        <mxCell id="WBYgSGgt15CVEmpAPgP6-79" value="Current data trigger&lt;br&gt;&amp;nbsp;a SessionEnd&lt;br&gt;Event&lt;br&gt;?" style="strokeWidth=2;html=1;shape=mxgraph.flowchart.decision;whiteSpace=wrap;rounded=1;dashed=1;strokeColor=#FFB366;fontFamily=Helvetica;fontSize=12;fontColor=#000000;container=0;" parent="fV8yQy2clXd-9ZjG-nMR-191" vertex="1">
          <mxGeometry x="402" y="340" width="144.31" height="80" as="geometry" />
        </mxCell>
        <mxCell id="fV8yQy2clXd-9ZjG-nMR-202" style="edgeStyle=orthogonalEdgeStyle;rounded=0;orthogonalLoop=1;jettySize=auto;html=1;endArrow=none;endFill=0;" parent="fV8yQy2clXd-9ZjG-nMR-191" source="WBYgSGgt15CVEmpAPgP6-81" edge="1">
          <mxGeometry relative="1" as="geometry">
            <mxPoint x="310.00230769230757" y="524.3266666666664" as="targetPoint" />
          </mxGeometry>
        </mxCell>
        <mxCell id="WBYgSGgt15CVEmpAPgP6-81" value="&lt;font color=&quot;#000000&quot; style=&quot;font-size: 12px;&quot; face=&quot;Helvetica&quot;&gt;Mark as a SessionEnd event&lt;/font&gt;" style="rounded=1;whiteSpace=wrap;html=1;absoluteArcSize=1;arcSize=14;strokeWidth=2;dashed=1;strokeColor=#FFB366;fontFamily=Comic Sans MS;fontSize=14;fontColor=#FFB366;container=0;" parent="fV8yQy2clXd-9ZjG-nMR-191" vertex="1">
          <mxGeometry x="417.98307692307685" y="499.99333333333317" width="112.35384615384615" height="48.666666666666664" as="geometry" />
        </mxCell>
        <mxCell id="WBYgSGgt15CVEmpAPgP6-82" style="edgeStyle=orthogonalEdgeStyle;rounded=0;orthogonalLoop=1;jettySize=auto;html=1;entryX=0.5;entryY=0;entryDx=0;entryDy=0;fontFamily=Helvetica;fontSize=12;fontColor=#000000;endArrow=classic;endFill=1;" parent="fV8yQy2clXd-9ZjG-nMR-191" source="WBYgSGgt15CVEmpAPgP6-79" target="WBYgSGgt15CVEmpAPgP6-81" edge="1">
          <mxGeometry relative="1" as="geometry" />
        </mxCell>
        <mxCell id="WBYgSGgt15CVEmpAPgP6-83" value="YES" style="edgeLabel;html=1;align=center;verticalAlign=middle;resizable=0;points=[];fontSize=12;fontFamily=Helvetica;fontColor=#000000;container=0;" parent="WBYgSGgt15CVEmpAPgP6-82" vertex="1" connectable="0">
          <mxGeometry x="-0.1667" y="-1" relative="1" as="geometry">
            <mxPoint as="offset" />
          </mxGeometry>
        </mxCell>
        <mxCell id="WBYgSGgt15CVEmpAPgP6-86" value="&lt;font face=&quot;Helvetica&quot; color=&quot;#000000&quot;&gt;&lt;span style=&quot;font-size: 12px;&quot;&gt;Get next data&lt;/span&gt;&lt;/font&gt;" style="rounded=1;whiteSpace=wrap;html=1;absoluteArcSize=1;arcSize=14;strokeWidth=2;dashed=1;strokeColor=#FFB366;fontFamily=Comic Sans MS;fontSize=14;fontColor=#FFB366;container=0;" parent="fV8yQy2clXd-9ZjG-nMR-191" vertex="1">
          <mxGeometry x="175.74153846153848" y="277.24130434782603" width="112.35384615384615" height="48.666666666666664" as="geometry" />
        </mxCell>
        <mxCell id="WBYgSGgt15CVEmpAPgP6-90" style="edgeStyle=orthogonalEdgeStyle;rounded=0;orthogonalLoop=1;jettySize=auto;html=1;entryX=0.5;entryY=0;entryDx=0;entryDy=0;strokeColor=#000000;fontFamily=Helvetica;fontSize=12;fontColor=#000000;endArrow=classic;endFill=1;" parent="fV8yQy2clXd-9ZjG-nMR-191" source="WBYgSGgt15CVEmpAPgP6-88" target="WBYgSGgt15CVEmpAPgP6-71" edge="1">
          <mxGeometry relative="1" as="geometry" />
        </mxCell>
        <mxCell id="WBYgSGgt15CVEmpAPgP6-91" value="YES" style="edgeLabel;html=1;align=center;verticalAlign=middle;resizable=0;points=[];fontSize=12;fontFamily=Helvetica;fontColor=#000000;container=0;" parent="WBYgSGgt15CVEmpAPgP6-90" vertex="1" connectable="0">
          <mxGeometry x="-0.1037" relative="1" as="geometry">
            <mxPoint y="-23" as="offset" />
          </mxGeometry>
        </mxCell>
        <mxCell id="WBYgSGgt15CVEmpAPgP6-88" value="Latest event is NULL?" style="strokeWidth=2;html=1;shape=mxgraph.flowchart.decision;whiteSpace=wrap;rounded=1;dashed=1;strokeColor=#FFB366;fontFamily=Helvetica;fontSize=12;fontColor=#000000;container=0;" parent="fV8yQy2clXd-9ZjG-nMR-191" vertex="1">
          <mxGeometry x="175.23076923076923" y="371.08333333333337" width="113.38461538461537" height="85.16666666666666" as="geometry" />
        </mxCell>
        <mxCell id="WBYgSGgt15CVEmpAPgP6-70" style="edgeStyle=orthogonalEdgeStyle;rounded=0;orthogonalLoop=1;jettySize=auto;html=1;fontFamily=Helvetica;fontSize=12;fontColor=#000000;endArrow=classic;endFill=1;exitX=0.5;exitY=1;exitDx=0;exitDy=0;" parent="fV8yQy2clXd-9ZjG-nMR-191" source="WBYgSGgt15CVEmpAPgP6-86" target="WBYgSGgt15CVEmpAPgP6-88" edge="1">
          <mxGeometry relative="1" as="geometry">
            <mxPoint x="231.92307692307685" y="220.2166666666668" as="sourcePoint" />
            <mxPoint x="231.92307692307685" y="304.16666666666663" as="targetPoint" />
          </mxGeometry>
        </mxCell>
        <mxCell id="fV8yQy2clXd-9ZjG-nMR-206" style="edgeStyle=orthogonalEdgeStyle;rounded=0;orthogonalLoop=1;jettySize=auto;html=1;endArrow=none;endFill=0;fillColor=#ffe6cc;strokeColor=#FFB366;" parent="fV8yQy2clXd-9ZjG-nMR-191" edge="1">
          <mxGeometry relative="1" as="geometry">
            <mxPoint x="309.00230769230757" y="239.99744791666672" as="targetPoint" />
            <mxPoint x="60.90230769230766" y="313.5" as="sourcePoint" />
            <Array as="points">
              <mxPoint x="61" y="240" />
              <mxPoint x="309" y="240" />
            </Array>
          </mxGeometry>
        </mxCell>
        <mxCell id="fV8yQy2clXd-9ZjG-nMR-207" value="NO" style="edgeLabel;html=1;align=center;verticalAlign=middle;resizable=0;points=[];" parent="fV8yQy2clXd-9ZjG-nMR-206" vertex="1" connectable="0">
          <mxGeometry x="-0.773" y="-1" relative="1" as="geometry">
            <mxPoint as="offset" />
          </mxGeometry>
        </mxCell>
        <mxCell id="WBYgSGgt15CVEmpAPgP6-89" value="recordTime &amp;gt; latest event.endTime&lt;br&gt;?" style="strokeWidth=2;html=1;shape=mxgraph.flowchart.decision;whiteSpace=wrap;rounded=1;dashed=1;strokeColor=#FFB366;fontFamily=Helvetica;fontSize=12;fontColor=#000000;container=0;" parent="fV8yQy2clXd-9ZjG-nMR-191" vertex="1">
          <mxGeometry y="313.50000000000006" width="123.69230769230768" height="97.33333333333333" as="geometry" />
        </mxCell>
        <mxCell id="WBYgSGgt15CVEmpAPgP6-92" style="edgeStyle=orthogonalEdgeStyle;rounded=0;orthogonalLoop=1;jettySize=auto;html=1;entryX=1;entryY=0.5;entryDx=0;entryDy=0;entryPerimeter=0;strokeColor=#000000;fontFamily=Helvetica;fontSize=12;fontColor=#000000;endArrow=classic;endFill=1;" parent="fV8yQy2clXd-9ZjG-nMR-191" source="WBYgSGgt15CVEmpAPgP6-88" target="WBYgSGgt15CVEmpAPgP6-89" edge="1">
          <mxGeometry relative="1" as="geometry">
            <Array as="points">
              <mxPoint x="140" y="414" />
              <mxPoint x="140" y="362" />
            </Array>
          </mxGeometry>
        </mxCell>
        <mxCell id="WBYgSGgt15CVEmpAPgP6-93" value="NO" style="edgeLabel;html=1;align=center;verticalAlign=middle;resizable=0;points=[];fontSize=12;fontFamily=Helvetica;fontColor=#000000;container=0;" parent="WBYgSGgt15CVEmpAPgP6-92" vertex="1" connectable="0">
          <mxGeometry x="0.0519" relative="1" as="geometry">
            <mxPoint x="4" as="offset" />
          </mxGeometry>
        </mxCell>
        <mxCell id="WBYgSGgt15CVEmpAPgP6-100" style="edgeStyle=orthogonalEdgeStyle;rounded=0;orthogonalLoop=1;jettySize=auto;html=1;strokeColor=#000000;fontFamily=Helvetica;fontSize=12;fontColor=#000000;endArrow=classic;endFill=1;exitX=0.5;exitY=1;exitDx=0;exitDy=0;exitPerimeter=0;entryX=0;entryY=0.5;entryDx=0;entryDy=0;" parent="fV8yQy2clXd-9ZjG-nMR-191" edge="1">
          <mxGeometry relative="1" as="geometry">
            <Array as="points">
              <mxPoint x="62" y="578" />
            </Array>
            <mxPoint x="61.84615384615381" y="553.4933333333338" as="sourcePoint" />
            <mxPoint x="175.23153846153855" y="577.8266666666668" as="targetPoint" />
          </mxGeometry>
        </mxCell>
        <mxCell id="WBYgSGgt15CVEmpAPgP6-101" value="YES" style="edgeLabel;html=1;align=center;verticalAlign=middle;resizable=0;points=[];fontSize=12;fontFamily=Helvetica;fontColor=#000000;container=0;" parent="WBYgSGgt15CVEmpAPgP6-100" vertex="1" connectable="0">
          <mxGeometry x="-0.1485" y="-3" relative="1" as="geometry">
            <mxPoint x="11" y="-3" as="offset" />
          </mxGeometry>
        </mxCell>
        <mxCell id="fV8yQy2clXd-9ZjG-nMR-211" style="edgeStyle=orthogonalEdgeStyle;rounded=0;orthogonalLoop=1;jettySize=auto;html=1;entryX=0;entryY=0.5;entryDx=0;entryDy=0;entryPerimeter=0;fillColor=#ffe6cc;strokeColor=#FFB366;" parent="fV8yQy2clXd-9ZjG-nMR-191" source="WBYgSGgt15CVEmpAPgP6-99" target="WBYgSGgt15CVEmpAPgP6-79" edge="1">
          <mxGeometry relative="1" as="geometry">
            <Array as="points">
              <mxPoint x="300" y="506" />
              <mxPoint x="300" y="380" />
            </Array>
          </mxGeometry>
        </mxCell>
        <mxCell id="fV8yQy2clXd-9ZjG-nMR-212" value="NO" style="edgeLabel;html=1;align=center;verticalAlign=middle;resizable=0;points=[];" parent="fV8yQy2clXd-9ZjG-nMR-211" vertex="1" connectable="0">
          <mxGeometry x="-0.7856" y="-1" relative="1" as="geometry">
            <mxPoint as="offset" />
          </mxGeometry>
        </mxCell>
        <mxCell id="WBYgSGgt15CVEmpAPgP6-99" value="Latest event is SessionEnd&lt;br&gt;?" style="strokeWidth=2;html=1;shape=mxgraph.flowchart.decision;whiteSpace=wrap;rounded=1;dashed=1;strokeColor=#FFB366;fontFamily=Helvetica;fontSize=12;fontColor=#000000;container=0;" parent="fV8yQy2clXd-9ZjG-nMR-191" vertex="1">
          <mxGeometry y="456.97000000000014" width="123.69230769230768" height="97.33333333333333" as="geometry" />
        </mxCell>
        <mxCell id="WBYgSGgt15CVEmpAPgP6-102" style="edgeStyle=orthogonalEdgeStyle;rounded=0;orthogonalLoop=1;jettySize=auto;html=1;entryX=0.5;entryY=0;entryDx=0;entryDy=0;entryPerimeter=0;strokeColor=#000000;fontFamily=Helvetica;fontSize=12;fontColor=#000000;endArrow=classic;endFill=1;" parent="fV8yQy2clXd-9ZjG-nMR-191" source="WBYgSGgt15CVEmpAPgP6-89" target="WBYgSGgt15CVEmpAPgP6-99" edge="1">
          <mxGeometry relative="1" as="geometry" />
        </mxCell>
        <mxCell id="WBYgSGgt15CVEmpAPgP6-103" value="YES" style="edgeLabel;html=1;align=center;verticalAlign=middle;resizable=0;points=[];fontSize=12;fontFamily=Helvetica;fontColor=#000000;container=0;" parent="WBYgSGgt15CVEmpAPgP6-102" vertex="1" connectable="0">
          <mxGeometry x="0.24" relative="1" as="geometry">
            <mxPoint y="-7" as="offset" />
          </mxGeometry>
        </mxCell>
        <mxCell id="fV8yQy2clXd-9ZjG-nMR-90" style="edgeStyle=orthogonalEdgeStyle;rounded=0;orthogonalLoop=1;jettySize=auto;html=1;entryX=0.5;entryY=0;entryDx=0;entryDy=0;" parent="fV8yQy2clXd-9ZjG-nMR-191" source="fV8yQy2clXd-9ZjG-nMR-89" target="WBYgSGgt15CVEmpAPgP6-86" edge="1">
          <mxGeometry relative="1" as="geometry" />
        </mxCell>
        <mxCell id="fV8yQy2clXd-9ZjG-nMR-91" value="YES" style="edgeLabel;html=1;align=center;verticalAlign=middle;resizable=0;points=[];" parent="fV8yQy2clXd-9ZjG-nMR-90" vertex="1" connectable="0">
          <mxGeometry x="-0.1027" y="-1" relative="1" as="geometry">
            <mxPoint as="offset" />
          </mxGeometry>
        </mxCell>
        <mxCell id="fV8yQy2clXd-9ZjG-nMR-89" value="Has next data&lt;br&gt;?" style="strokeWidth=2;html=1;shape=mxgraph.flowchart.decision;whiteSpace=wrap;rounded=1;dashed=1;strokeColor=#FFB366;fontFamily=Helvetica;fontSize=12;fontColor=#000000;container=0;" parent="fV8yQy2clXd-9ZjG-nMR-191" vertex="1">
          <mxGeometry x="180.3846153846153" y="160.86449275362327" width="103.07692307692307" height="72.99999999999999" as="geometry" />
        </mxCell>
        <mxCell id="WBYgSGgt15CVEmpAPgP6-67" style="edgeStyle=orthogonalEdgeStyle;rounded=0;orthogonalLoop=1;jettySize=auto;html=1;fontFamily=Helvetica;fontSize=12;fontColor=#000000;endArrow=classic;endFill=1;" parent="fV8yQy2clXd-9ZjG-nMR-191" source="WBYgSGgt15CVEmpAPgP6-60" target="fV8yQy2clXd-9ZjG-nMR-89" edge="1">
          <mxGeometry relative="1" as="geometry">
            <mxPoint x="231.92307692307685" y="159.38333333333333" as="targetPoint" />
          </mxGeometry>
        </mxCell>
        <mxCell id="WBYgSGgt15CVEmpAPgP6-75" style="edgeStyle=orthogonalEdgeStyle;rounded=0;orthogonalLoop=1;jettySize=auto;html=1;entryX=1;entryY=0.5;entryDx=0;entryDy=0;entryPerimeter=0;fontFamily=Helvetica;fontSize=12;fontColor=#000000;endArrow=classic;endFill=1;exitX=1;exitY=0.5;exitDx=0;exitDy=0;" parent="fV8yQy2clXd-9ZjG-nMR-191" source="WBYgSGgt15CVEmpAPgP6-71" target="fV8yQy2clXd-9ZjG-nMR-89" edge="1">
          <mxGeometry relative="1" as="geometry">
            <mxPoint x="288.6153846153846" y="189.80000000000007" as="targetPoint" />
            <Array as="points">
              <mxPoint x="309" y="579" />
              <mxPoint x="309" y="197" />
            </Array>
          </mxGeometry>
        </mxCell>
        <mxCell id="fV8yQy2clXd-9ZjG-nMR-192" style="edgeStyle=orthogonalEdgeStyle;rounded=0;orthogonalLoop=1;jettySize=auto;html=1;entryX=1;entryY=0.5;entryDx=0;entryDy=0;entryPerimeter=0;" parent="fV8yQy2clXd-9ZjG-nMR-213" source="fV8yQy2clXd-9ZjG-nMR-89" target="fV8yQy2clXd-9ZjG-nMR-183" edge="1">
          <mxGeometry relative="1" as="geometry" />
        </mxCell>
        <mxCell id="fV8yQy2clXd-9ZjG-nMR-193" value="NO" style="edgeLabel;html=1;align=center;verticalAlign=middle;resizable=0;points=[];" parent="fV8yQy2clXd-9ZjG-nMR-192" vertex="1" connectable="0">
          <mxGeometry x="-0.147" y="-1" relative="1" as="geometry">
            <mxPoint as="offset" />
          </mxGeometry>
        </mxCell>
        <mxCell id="fV8yQy2clXd-9ZjG-nMR-218" value="" style="group" parent="fV8yQy2clXd-9ZjG-nMR-220" vertex="1" connectable="0">
          <mxGeometry width="220" height="760" as="geometry" />
        </mxCell>
        <mxCell id="zfzZaOAXR4KBhkY2sdG--44" value="" style="rounded=0;whiteSpace=wrap;html=1;dashed=1;labelBackgroundColor=#E6E6E6;strokeColor=#FF3333;strokeWidth=2;fillColor=#FFFFFF;gradientColor=none;align=center;container=0;" parent="fV8yQy2clXd-9ZjG-nMR-218" vertex="1">
          <mxGeometry width="220" height="760.0000000000001" as="geometry" />
        </mxCell>
        <mxCell id="fV8yQy2clXd-9ZjG-nMR-216" value="" style="group" parent="fV8yQy2clXd-9ZjG-nMR-218" vertex="1" connectable="0">
          <mxGeometry x="25" y="6.715517241379311" width="170" height="737.8913706896551" as="geometry" />
        </mxCell>
        <mxCell id="WBYgSGgt15CVEmpAPgP6-20" value="" style="rounded=1;whiteSpace=wrap;html=1;dashed=1;strokeColor=#6666FF;strokeWidth=2;container=0;" parent="fV8yQy2clXd-9ZjG-nMR-216" vertex="1">
          <mxGeometry x="20" y="566.2720689655172" width="140" height="71.74137931034483" as="geometry" />
        </mxCell>
        <mxCell id="WBYgSGgt15CVEmpAPgP6-19" value="" style="rounded=1;whiteSpace=wrap;html=1;dashed=1;strokeColor=#FFB366;strokeWidth=2;container=0;" parent="fV8yQy2clXd-9ZjG-nMR-216" vertex="1">
          <mxGeometry x="20" y="455.3692327586206" width="140" height="71.74137931034483" as="geometry" />
        </mxCell>
        <mxCell id="zfzZaOAXR4KBhkY2sdG--1" value="Terminate" style="strokeWidth=2;html=1;shape=mxgraph.flowchart.terminator;whiteSpace=wrap;align=center;container=0;" parent="fV8yQy2clXd-9ZjG-nMR-216" vertex="1">
          <mxGeometry x="30" y="675.7155086206897" width="120" height="62.17586206896551" as="geometry" />
        </mxCell>
        <mxCell id="zfzZaOAXR4KBhkY2sdG--2" value="Invoked" style="strokeWidth=2;html=1;shape=mxgraph.flowchart.start_1;whiteSpace=wrap;align=center;container=0;" parent="fV8yQy2clXd-9ZjG-nMR-216" vertex="1">
          <mxGeometry x="35" y="50.9435966617754" width="110" height="55.96845194424064" as="geometry" />
        </mxCell>
        <mxCell id="zfzZaOAXR4KBhkY2sdG--3" value="Get active sensorIds" style="rounded=1;whiteSpace=wrap;html=1;absoluteArcSize=1;arcSize=14;strokeWidth=2;align=center;container=0;" parent="fV8yQy2clXd-9ZjG-nMR-216" vertex="1">
          <mxGeometry x="30" y="155.7681997432137" width="120" height="41.97633895818048" as="geometry" />
        </mxCell>
        <mxCell id="zfzZaOAXR4KBhkY2sdG--4" style="edgeStyle=orthogonalEdgeStyle;rounded=0;orthogonalLoop=1;jettySize=auto;html=1;entryX=0.5;entryY=0;entryDx=0;entryDy=0;align=center;" parent="fV8yQy2clXd-9ZjG-nMR-216" source="zfzZaOAXR4KBhkY2sdG--2" target="zfzZaOAXR4KBhkY2sdG--3" edge="1">
          <mxGeometry relative="1" as="geometry" />
        </mxCell>
        <mxCell id="zfzZaOAXR4KBhkY2sdG--27" value="&amp;nbsp;Get next sensorId" style="rounded=1;whiteSpace=wrap;html=1;absoluteArcSize=1;arcSize=14;strokeWidth=2;align=center;container=0;" parent="fV8yQy2clXd-9ZjG-nMR-216" vertex="1">
          <mxGeometry x="30" y="384.2061232575201" width="120" height="41.97633895818048" as="geometry" />
        </mxCell>
        <mxCell id="WBYgSGgt15CVEmpAPgP6-7" style="edgeStyle=orthogonalEdgeStyle;rounded=0;orthogonalLoop=1;jettySize=auto;html=1;entryX=0.5;entryY=0;entryDx=0;entryDy=0;" parent="fV8yQy2clXd-9ZjG-nMR-216" source="WBYgSGgt15CVEmpAPgP6-3" target="zfzZaOAXR4KBhkY2sdG--27" edge="1">
          <mxGeometry relative="1" as="geometry" />
        </mxCell>
        <mxCell id="WBYgSGgt15CVEmpAPgP6-8" value="YES" style="edgeLabel;html=1;align=center;verticalAlign=middle;resizable=0;points=[];container=0;" parent="WBYgSGgt15CVEmpAPgP6-7" vertex="1" connectable="0">
          <mxGeometry x="0.2001" relative="1" as="geometry">
            <mxPoint as="offset" />
          </mxGeometry>
        </mxCell>
        <mxCell id="WBYgSGgt15CVEmpAPgP6-3" value="Has next &lt;br&gt;sensorId&lt;br&gt;?" style="strokeWidth=2;html=1;shape=mxgraph.flowchart.decision;whiteSpace=wrap;container=0;" parent="fV8yQy2clXd-9ZjG-nMR-216" vertex="1">
          <mxGeometry x="30" y="250.11288793103455" width="120" height="83.69827586206897" as="geometry" />
        </mxCell>
        <mxCell id="fV8yQy2clXd-9ZjG-nMR-215" style="edgeStyle=orthogonalEdgeStyle;rounded=0;orthogonalLoop=1;jettySize=auto;html=1;entryX=0.5;entryY=0;entryDx=0;entryDy=0;entryPerimeter=0;" parent="fV8yQy2clXd-9ZjG-nMR-216" source="zfzZaOAXR4KBhkY2sdG--3" target="WBYgSGgt15CVEmpAPgP6-3" edge="1">
          <mxGeometry relative="1" as="geometry" />
        </mxCell>
        <mxCell id="WBYgSGgt15CVEmpAPgP6-14" style="edgeStyle=orthogonalEdgeStyle;rounded=0;orthogonalLoop=1;jettySize=auto;html=1;entryX=1;entryY=0.5;entryDx=0;entryDy=0;entryPerimeter=0;" parent="fV8yQy2clXd-9ZjG-nMR-216" source="WBYgSGgt15CVEmpAPgP6-9" target="WBYgSGgt15CVEmpAPgP6-3" edge="1">
          <mxGeometry relative="1" as="geometry">
            <Array as="points">
              <mxPoint x="170" y="491.21551724137936" />
              <mxPoint x="170" y="292.0431034482759" />
            </Array>
          </mxGeometry>
        </mxCell>
        <mxCell id="WBYgSGgt15CVEmpAPgP6-9" value="Find Session Event" style="rounded=1;whiteSpace=wrap;html=1;absoluteArcSize=1;arcSize=14;strokeWidth=2;align=center;container=0;" parent="fV8yQy2clXd-9ZjG-nMR-216" vertex="1">
          <mxGeometry x="30" y="470.2564680851064" width="120" height="41.97633895818048" as="geometry" />
        </mxCell>
        <mxCell id="WBYgSGgt15CVEmpAPgP6-11" style="edgeStyle=orthogonalEdgeStyle;rounded=0;orthogonalLoop=1;jettySize=auto;html=1;entryX=0.5;entryY=0;entryDx=0;entryDy=0;" parent="fV8yQy2clXd-9ZjG-nMR-216" source="zfzZaOAXR4KBhkY2sdG--27" target="WBYgSGgt15CVEmpAPgP6-9" edge="1">
          <mxGeometry relative="1" as="geometry" />
        </mxCell>
        <mxCell id="WBYgSGgt15CVEmpAPgP6-18" style="edgeStyle=orthogonalEdgeStyle;rounded=0;orthogonalLoop=1;jettySize=auto;html=1;entryX=0.5;entryY=0;entryDx=0;entryDy=0;entryPerimeter=0;" parent="fV8yQy2clXd-9ZjG-nMR-216" source="WBYgSGgt15CVEmpAPgP6-15" target="zfzZaOAXR4KBhkY2sdG--1" edge="1">
          <mxGeometry relative="1" as="geometry" />
        </mxCell>
        <mxCell id="WBYgSGgt15CVEmpAPgP6-15" value="Save &amp;amp; clean up" style="rounded=1;whiteSpace=wrap;html=1;absoluteArcSize=1;arcSize=14;strokeWidth=2;align=center;container=0;" parent="fV8yQy2clXd-9ZjG-nMR-216" vertex="1">
          <mxGeometry x="30" y="581.1535715333822" width="120" height="41.97633895818048" as="geometry" />
        </mxCell>
        <mxCell id="WBYgSGgt15CVEmpAPgP6-12" style="edgeStyle=orthogonalEdgeStyle;rounded=0;orthogonalLoop=1;jettySize=auto;html=1;entryX=0;entryY=0.5;entryDx=0;entryDy=0;exitX=0;exitY=0.5;exitDx=0;exitDy=0;exitPerimeter=0;" parent="fV8yQy2clXd-9ZjG-nMR-216" source="WBYgSGgt15CVEmpAPgP6-3" target="WBYgSGgt15CVEmpAPgP6-15" edge="1">
          <mxGeometry relative="1" as="geometry">
            <mxPoint y="551.6075086206896" as="targetPoint" />
            <Array as="points">
              <mxPoint y="292.0431034482759" />
              <mxPoint y="602.3327586206897" />
            </Array>
          </mxGeometry>
        </mxCell>
        <mxCell id="WBYgSGgt15CVEmpAPgP6-13" value="NO" style="edgeLabel;html=1;align=center;verticalAlign=middle;resizable=0;points=[];container=0;" parent="WBYgSGgt15CVEmpAPgP6-12" vertex="1" connectable="0">
          <mxGeometry x="0.0664" y="2" relative="1" as="geometry">
            <mxPoint as="offset" />
          </mxGeometry>
        </mxCell>
        <mxCell id="9VEnPuVJjKM_ZVN6CkUY-4" value="&lt;font color=&quot;#ff3333&quot; style=&quot;font-size: 14px;&quot; face=&quot;Comic Sans MS&quot;&gt;Overview&lt;/font&gt;" style="text;html=1;strokeColor=none;fillColor=none;align=center;verticalAlign=middle;whiteSpace=wrap;rounded=0;dashed=1;labelBackgroundColor=#FFFFFF;strokeWidth=2;container=0;" parent="fV8yQy2clXd-9ZjG-nMR-216" vertex="1">
          <mxGeometry x="15" width="150" height="38.26206896551724" as="geometry" />
        </mxCell>
      </root>
    </mxGraphModel>
  </diagram>
</mxfile>
